 <!DOCTYPE svg PUBLIC "-//W3C//DTD SVG 1.1//EN" "http://www.w3.org/Graphics/SVG/1.1/DTD/svg11.dtd">
<svg id="b55e4aaa-00bc-4063-aaac-f140cffd4a3c" data-name="Layer 1" xmlns="http://www.w3.org/2000/svg" xmlns:xlink="http://www.w3.org/1999/xlink" width="865.76" height="682.89" viewBox="0 0 865.76 682.89">
<defs>
<clipPath id="fc806f63-9b35-4eaf-8df9-78d7b04cc27b">
<path id="b3964fd7-b9d9-4132-9ffb-28285d050616" data-name="SVGID" d="M129.05,146C188.61,82.24,271.77,39.81,361.8,37.09,490,33.21,556.08,134.23,651.28,180.86S812.54,268.29,824.2,359.6s1.94,176.8-77.72,219.55S618.25,550,515.28,553.89,350.14,674.35,220.94,639.37c-85-23-148-107.38-171.73-188.55C16.77,339.69,54.36,226,129.05,146Z" fill="none"/>
</clipPath>
<style xmlns="http://www.w3.org/1999/xhtml">*, ::after, ::before { box-sizing: border-box; }
img, svg { vertical-align: middle; }
</style>
<style xmlns="http://www.w3.org/1999/xhtml">*, body, html { -webkit-font-smoothing: antialiased; }
img, svg { max-width: 100%; }
</style>
</defs>
<path id="e06ae995-89d0-4459-a664-61865c266875" data-name="SVGID" d="M129.05,146C188.61,82.24,271.77,39.81,361.8,37.09,490,33.21,556.08,134.23,651.28,180.86S812.54,268.29,824.2,359.6s1.94,176.8-77.72,219.55S618.25,550,515.28,553.89,350.14,674.35,220.94,639.37c-85-23-148-107.38-171.73-188.55C16.77,339.69,54.36,226,129.05,146Z" fill="#ff0080" data-primary="true"/>
<path id="be8e6403-da00-44c4-a4e7-86ba73e6ce06" data-name="SVGID" d="M129.05,146C188.61,82.24,271.77,39.81,361.8,37.09,490,33.21,556.08,134.23,651.28,180.86S812.54,268.29,824.2,359.6s1.94,176.8-77.72,219.55S618.25,550,515.28,553.89,350.14,674.35,220.94,639.37c-85-23-148-107.38-171.73-188.55C16.77,339.69,54.36,226,129.05,146Z" fill="#fff" opacity="0.7"/>
<g clip-path="url(#fc806f63-9b35-4eaf-8df9-78d7b04cc27b)">
<path d="M533.25,464.07s11,67.12,0,74.32c0,0-10.12,2.12-9.27,7.2l19.24,5.74,10.41-10s5.92-41.51,5.92-46.17-15.24-47.44-15.24-47.44Z" fill="#ff0080" data-primary="true"/>
<path d="M533.25,464.07s11,67.12,0,74.32c0,0-10.12,2.12-9.27,7.2l19.24,5.74,10.41-10s5.92-41.51,5.92-46.17-15.24-47.44-15.24-47.44Z" fill="#ff0080" data-primary="true"/>
<path d="M533.25,464.07s11,67.12,0,74.32c0,0-10.12,2.12-9.27,7.2l19.24,5.74,10.41-10s5.92-41.51,5.92-46.17-15.24-47.44-15.24-47.44Z" opacity="0.2"/>
<path d="M515.85,296.53s-1.4-3.78-2.73-6.4a126.69,126.69,0,0,0,4.21-19.61S517.58,289.06,515.85,296.53Z" fill="#ff0080" data-primary="true"/>
<path d="M517.33,270.52a126.69,126.69,0,0,1-4.21,19.61A27,27,0,0,0,501,279.18s7.7-9.58,12.83-11.47A2.62,2.62,0,0,1,517.33,270.52Z" fill="#ff0080" data-primary="true"/>
<path d="M517.33,270.52a126.69,126.69,0,0,1-4.21,19.61A27,27,0,0,0,501,279.18s7.7-9.58,12.83-11.47A2.62,2.62,0,0,1,517.33,270.52Z" opacity="0.2"/>
<path d="M482.44,277s5.74-10.76,9.58-12.72a1.52,1.52,0,0,1,2.05.76c.88,1.91,2.4,6.6,1,14.45Z" fill="#ff0080" data-primary="true"/>
<path d="M482.44,277s5.74-10.76,9.58-12.72a1.52,1.52,0,0,1,2.05.76c.88,1.91,2.4,6.6,1,14.45Z" opacity="0.2"/>
<path d="M501,279.18c-24.78-9-36.32-.11-39.74,2.89a11.75,11.75,0,0,1-3.41,2.14c-8.17,3.21-24.07,4.11-24.07,4.11l-6.54,4.15c-1.84,7.11,1.09,16,3.59,21.79a19.76,19.76,0,0,0,9.6,10,64.18,64.18,0,0,0,15.36,4.92s18.44,7.14,21.72,21.42c0,0,6.54,22,16.95,32.42,0,0,7.73,12.19,14.57,32.71a117.34,117.34,0,0,0,17.55,36.4s12.2,17.74,14.87,38.26c0,0,.3,24.39,3.87,38.67,0,0,1.78,21.11-2.08,22.3l12.49,3.57s8.92-10.41,10.41-32.42a214.67,214.67,0,0,1,1.78-33.31l3-16.95s3.57-13.69,0-26.48c0,0,8.92,5.36,34.8-4.46,0,0,45.8-26.17,63.65-19.63,0,0,4.16-1.49,9.52,23.2,0,0,22.3,53.84,31.52,68.41,0,0,5.06,38.67-2.37,46.1,0,0-15.77,6.25-6.25,11.31,0,0,2.08,3,5.06,1.19,0,0,10.7,3.56,15.46-6,0,0,1.19-9.22,2.68-13.69,0,0,6.84-29.74,1.49-44.91,0,0-5.65-21.41-2.38-29.44,0,0,11.3,18.74,19.33,29.15,0,0,11.9,21.41,4.76,28.55,0,0-8.92,11.3-1.49,12.19,0,0,3.27,1.89,4.86.3,0,0,1.39,2.28,6.15-.3l5.25-4.16s4.56-2.38,0-19.63c0,0-2.58-10.71-2.77-18.64,0,0-4.59-20.49-11.81-34.12a37.09,37.09,0,0,1-4.43-17.32c0-6.34.36-14.35,1.86-20.94,0,0,6.84-36.28-15.17-60.08,0,0,33.48,7.61,44.63-29.25h-3.38s7.1-4.05,3.38-8.79c0,0,3-5.07-1.35-8.11,0,0,4.06-3.38.34-7.1,0,0,.34-17.58-8.45-10.15,0,0-11.5-18.59-11.5-6.08,0,0-21.3-11.84-18.94-1.69,0,0-19.61,7.44-7.43,9.8,0,0-16.23,12.51-5.08,11.5,0,0-2.7,15.55,4.4,22.32l10.48-2S729.25,322,744.46,321c0,0,7.42,1.7,7.32,10.79a16.32,16.32,0,0,1-12.7,15.56c-4.53,1.06-10.86,1.41-19.64,0,0,0-40.59-7.18-60.42-3.22,0,0-51.95,12.3-90-6.74a56.56,56.56,0,0,0-9.44-2.83,14.08,14.08,0,0,1-7-3.28,130.55,130.55,0,0,0-16.51-12.13s-15.86-10.71-20.23-22.61C515.85,296.53,512.43,283.35,501,279.18Z" fill="#ff0080" data-primary="true"/>
<line x1="458.46" y1="43.93" x2="458.46" y2="540.62" fill="none" stroke="#bcbec0" stroke-miterlimit="10" stroke-width="3"/>
<line x1="759.45" y1="164.05" x2="342.25" y2="290.13" fill="none" stroke="#bcbec0" stroke-miterlimit="10" stroke-width="3"/>
<path d="M432,298.81s-6.55-1.67-4.76-6.34c0,0,4.16-5.65,9.22-3.82,0,0,3.27,1.42,0,4.9Z" fill="#2f2e41" data-secondary="true"/>
<path d="M432,298.81c.17,1.4.29,2.81.44,4.21a6.28,6.28,0,0,0,1.66,3.65,18.22,18.22,0,0,0,7.16,4,17.53,17.53,0,0,0,4.06.76c.69.05,1.39,0,2.11.09a18.81,18.81,0,0,1,2.13.29,25.44,25.44,0,0,1,4.1,1.14,10.09,10.09,0,0,1,1.91,1,3.78,3.78,0,0,1,1.43,1.54,4.09,4.09,0,0,0-1.53-1.39,10.38,10.38,0,0,0-1.92-.8,24.84,24.84,0,0,0-4.08-.93c-.69-.1-1.38-.17-2.07-.22s-1.39,0-2.12,0a18.48,18.48,0,0,1-4.23-.74,19.58,19.58,0,0,1-5.72-2.91,9.44,9.44,0,0,1-1.62-1.43,6.57,6.57,0,0,1-1.61-4C432.05,301.63,432,300.22,432,298.81Z" fill="#2f2e41" data-secondary="true"/>
<path d="M429.8,311.8a17,17,0,0,1,1.23-3.37,16.45,16.45,0,0,1,1.85-3.08,16.12,16.12,0,0,1-1.22,3.37A17.05,17.05,0,0,1,429.8,311.8Z" fill="#2f2e41" data-secondary="true"/>
<circle cx="476.22" cy="288.33" r="2.6" fill="#2f2e41" data-secondary="true"/>
<polygon points="601.48 59.38 601.48 607.85 646.71 623.51 652.67 78.42 601.48 59.38" fill="#bcbec0"/>
<line x1="500.4" y1="43.93" x2="500.4" y2="562.24" fill="none" stroke="#bcbec0" stroke-miterlimit="10" stroke-width="3"/>
<line x1="542.93" y1="45.18" x2="542.93" y2="580.43" fill="none" stroke="#bcbec0" stroke-miterlimit="10" stroke-width="3"/>
<line x1="581.3" y1="41.22" x2="581.3" y2="587.89" fill="none" stroke="#bcbec0" stroke-miterlimit="10" stroke-width="3"/>
<line x1="336.49" y1="187.75" x2="601.48" y2="75.44" fill="none" stroke="#bcbec0" stroke-miterlimit="10" stroke-width="3"/>
<line x1="331.81" y1="372.87" x2="846.6" y2="300.53" fill="none" stroke="#bcbec0" stroke-miterlimit="10" stroke-width="3"/>
<line x1="828.27" y1="512.31" x2="336.49" y2="441.95" fill="none" stroke="#bcbec0" stroke-miterlimit="10" stroke-width="3"/>
<line x1="293.18" y1="23.25" x2="293.18" y2="467.12" fill="none" stroke="#bcbec0" stroke-miterlimit="10" stroke-width="3"/>
<line x1="391.24" y1="36.78" x2="391.24" y2="528.19" fill="none" stroke="#bcbec0" stroke-miterlimit="10" stroke-width="3"/>
<line x1="364.79" y1="10.88" x2="362.67" y2="516.73" fill="none" stroke="#bcbec0" stroke-miterlimit="10" stroke-width="3"/>
<line x1="338.61" y1="15.65" x2="338.61" y2="469.02" fill="none" stroke="#bcbec0" stroke-miterlimit="10" stroke-width="3"/>
<line x1="315.51" y1="19.96" x2="315.51" y2="463.84" fill="none" stroke="#bcbec0" stroke-miterlimit="10" stroke-width="3"/>
<line x1="422.77" y1="40.6" x2="422.77" y2="532.01" fill="none" stroke="#bcbec0" stroke-miterlimit="10" stroke-width="3"/>
<line x1="291.05" y1="92.35" x2="391.24" y2="45.18" fill="none" stroke="#bcbec0" stroke-miterlimit="10" stroke-width="3"/>
<line x1="675.28" y1="87.92" x2="675.28" y2="623.51" fill="none" stroke="#bcbec0" stroke-miterlimit="10" stroke-width="3"/>
<line x1="710.97" y1="87.92" x2="710.97" y2="623.51" fill="none" stroke="#bcbec0" stroke-miterlimit="10" stroke-width="3"/>
<line x1="744.58" y1="82.58" x2="744.58" y2="618.18" fill="none" stroke="#bcbec0" stroke-miterlimit="10" stroke-width="3"/>
<line x1="780.27" y1="82.58" x2="780.27" y2="629.26" fill="none" stroke="#bcbec0" stroke-miterlimit="10" stroke-width="3"/>
<line x1="814.48" y1="83.83" x2="814.48" y2="630.51" fill="none" stroke="#bcbec0" stroke-miterlimit="10" stroke-width="3"/>
<line x1="846.6" y1="79.87" x2="846.6" y2="626.54" fill="none" stroke="#bcbec0" stroke-miterlimit="10" stroke-width="3"/>
<polygon points="331.81 490.63 776.31 616.17 746.04 658.85 304.49 501.77 331.81 490.63" fill="#bcbec0"/>
<path d="M228.37,485.81s94.92,27.41,110.47,12.27c0,0,11.86-5.72,13.09-26.18,0,0,9.82-20-16.36-32.32,0,0-49.88-31.84-70.56-38l-18.23,16.32Z" fill="#2f2e41" data-secondary="true"/>
<path d="M228.37,485.81s94.92,27.41,110.47,12.27c0,0,11.86-5.72,13.09-26.18,0,0,9.82-20-16.36-32.32,0,0-49.88-31.84-70.56-38l-18.23,16.32Z" opacity="0.2"/>
<path d="M161.43,486.63s2.21,10.67,0,20.29c0,0-7.41,16.31,15.67,17l13-2.31-10.24-7.37-4.65-25-8-6.52A35,35,0,0,1,161.43,486.63Z" fill="#ff0080" data-primary="true"/>
<path d="M161.43,486.63s2.21,10.67,0,20.29c0,0-7.41,16.31,15.67,17l13-2.31-10.24-7.37-4.65-25-8-6.52A35,35,0,0,1,161.43,486.63Z" opacity="0.4"/>
<path d="M163.47,485.35s4.24,4.27,1.41,23.6c0,0-2.67,12.64,15.17,12.64l22-26.26,10.68-50.48-4.53-15.76s-37.36,2.67-36.33,3.57S163.47,485.35,163.47,485.35Z" fill="#ff0080" data-primary="true"/>
<path d="M163.47,485.35s4.24,4.27,1.41,23.6c0,0-2.67,12.64,15.17,12.64l22-26.26,10.68-50.48-4.53-15.76s-37.36,2.67-36.33,3.57S163.47,485.35,163.47,485.35Z" opacity="0.2"/>
<path d="M230.62,477.53l-5.52,25.11c-5.56-3.05-10.9,2.69-13.18,5.68a25,25,0,0,1-5.53,5.43c-13.51,9.46-20.57-6.67-20.57-6.67L198.07,469l27-4.49Z" fill="#f9b499"/>
<path d="M275.47,551.83a7.89,7.89,0,0,1-.29,2.31c.13,12.38-38.69,7.31-49.15,5.72a26.66,26.66,0,0,1-4.66-1.15c-11-3.71-17.13-3.35-17.13-3.35-24.55,2.86-27.42-3.27-27.42-3.27-2.3-2.3-2.92-6.61-2.7-11.45.51-10.67,5.16-23.91,5.16-23.91,2.46-12.86,6.54-9.65,6.54-9.65s7.06,16.13,20.57,6.67a25,25,0,0,0,5.53-5.43c2.28-3,7.62-8.73,13.18-5.68,2.35,2.46,2.09,7,1.83,9.11a11.73,11.73,0,0,0,.12,4c1.91,8.42,12.19,14.36,12.19,14.36a48.26,48.26,0,0,0,19,7.65C273.26,541.3,275.43,548.22,275.47,551.83Z" fill="#ff0080" data-primary="true"/>
<path d="M208.22,512.31q.17,5.24.23,10.47v0a13.32,13.32,0,0,0,.92,5.05,14.56,14.56,0,0,0,2.6,4.43c.27.33.59.62.89.93l.45.47.5.4c.34.27.66.56,1,.82l1.08.7.54.36.58.31,1.15.6c.77.38,1.6.66,2.4,1a38.17,38.17,0,0,1,4.89,2.08,29.84,29.84,0,0,1,4.46,2.89,24.58,24.58,0,0,1,3.9,3.59,12.18,12.18,0,0,1,1.51,2.19,5.93,5.93,0,0,1,.74,2.52,8.31,8.31,0,0,0-2.45-4.52,26.87,26.87,0,0,0-4-3.41,33.54,33.54,0,0,0-9.29-4.73c-.83-.33-1.68-.61-2.48-1l-1.19-.61-.6-.3-.56-.37-1.12-.74c-.35-.28-.69-.57-1-.86l-.52-.43-.47-.48c-.3-.33-.63-.64-.91-1a14.49,14.49,0,0,1-3.48-9.93v0Q208.06,517.54,208.22,512.31Z" opacity="0.2"/>
<path d="M338.64,295c-.14-.4,3.3.41,1.81-7.08a12.16,12.16,0,0,1-.22-1.7c-.13-2.59.2-8.71,6.92-3.21l3,11.17S340,298.92,338.64,295Z" fill="#f7a48b"/>
<path d="M332,285.05s-1.74-5.25,4.34-2.06l5.88,4.4,1.41,9.15L328.32,295Z" fill="#f7a48b"/>
<path d="M310.3,207.66a111.26,111.26,0,0,0-6.51,27.05s-.44,12.45-7.48,19l-7-15.4a23.11,23.11,0,0,1-3.92-17.49,11.92,11.92,0,0,1,2.81-5.91l6.81-7.9A25.6,25.6,0,0,0,310.3,207.66Z" fill="#2f2e41" data-secondary="true"/>
<ellipse cx="313.33" cy="158.39" rx="52.01" ry="34.48" transform="translate(54.54 395.65) rotate(-69.33)" fill="#f9b499"/>
<path d="M289.27,238.36c-29,17.16-46.16-32.35-46.16-32.35a39.73,39.73,0,0,0,23-9.94,31.54,31.54,0,0,0,7.67-10.48c1-2.2,1.95-4.28,2.86-6.23C280,203.3,295,207.06,295,207.06l-6.74,7.81a12.2,12.2,0,0,0-2.86,6.22C283.87,231.75,289.27,238.36,289.27,238.36Z" fill="#f9b499"/>
<path d="M295,207.06l-6.74,7.81s-9.65-9-9.18-25.27C279.05,189.6,283.08,202.25,295,207.06Z" fill="#f7a48b"/>
<path d="M106.89,380.82a4.17,4.17,0,0,1-5.13-1.05c-2.5-3.08-4.51-10.36,3.07-27.24l16.26-37.37s22.76-72.1,42.19-90L166,198.75l65.48-24L243.11,206s17.88,49.7,46.16,32.35l11.24,24.07s12.3,25-6.34,51c0,0-21,36.28-44.22,41.64L150,369.9S123.75,372.33,106.89,380.82Z" fill="#ff0080" data-primary="true"/>
<ellipse cx="273.27" cy="299.13" rx="10.95" ry="12.34" fill="#ff0080" data-primary="true"/>
<ellipse cx="273.27" cy="299.13" rx="10.95" ry="12.34" opacity="0.4"/>
<path d="M272.19,388.71c-.64,1.22-1,1.89-1,1.89-7.3,10.58-21.16,44.52-21.16,44.52-5.48,15.32-9.49,36.12-9.49,36.12-5.11,14.6-40.14-.36-40.14-.36C192,465,196,460.3,196,460.3a75.75,75.75,0,0,0,4.38-24.82c-29.93,74.45-81.74,58.39-81.74,58.39-47.81-23-15-112.79-15-112.79a3.06,3.06,0,0,0,3.21-.26c17-8.5,43.12-10.92,43.12-10.92,16.42-18.15,62-48.63,62-48.63,46.35-30.29,59.12,0,59.12,0,7.95,6.25,11.28,14.73,12,23.59C284.65,362.91,275.34,382.63,272.19,388.71Z" fill="#2f2e41" data-secondary="true"/>
<path d="M118.48,403.21c2.43-2.86,4.9-5.67,7.39-8.47s5-5.57,7.52-8.36,5.07-5.51,7.64-8.24l3.86-4.08c1.3-1.35,2.59-2.71,3.91-4-1.2,1.43-2.44,2.84-3.66,4.26l-3.72,4.21c-2.49,2.8-5,5.57-7.52,8.35s-5.07,5.52-7.64,8.24S121.12,400.54,118.48,403.21Z" opacity="0.2"/>
<path d="M200.38,435.48a191.92,191.92,0,0,1,2.27-21.77,209.89,209.89,0,0,1,4.55-21.43,157.72,157.72,0,0,1,7.16-20.7q2.2-5,4.83-9.84a97.44,97.44,0,0,1,5.92-9.21,107.17,107.17,0,0,0-5.62,9.38q-2.52,4.84-4.64,9.88c-1.37,3.37-2.68,6.77-3.83,10.22s-2.21,6.94-3.15,10.46c-1.93,7-3.45,14.15-4.69,21.33q-.94,5.38-1.64,10.81C201.06,428.22,200.66,431.85,200.38,435.48Z" opacity="0.2"/>
<path d="M309.38,486.63a14.77,14.77,0,0,0-3.6-2.57,28.46,28.46,0,0,0-4.06-1.73,43.33,43.33,0,0,0-8.63-1.89c-1.46-.17-2.95-.29-4.42-.48s-2.95-.41-4.42-.67c-2.93-.49-5.84-1.15-8.72-1.82l-17.3-4.14-8.64-2.12L241,469l8.7,1.86,8.68,1.93,17.34,4c2.89.7,5.76,1.37,8.67,1.88,1.46.27,2.92.49,4.38.69s2.94.34,4.42.55a43.17,43.17,0,0,1,8.67,2.1,28.55,28.55,0,0,1,4,1.89A14.16,14.16,0,0,1,309.38,486.63Z" opacity="0.2"/>
<path d="M232.83,564.43A78.47,78.47,0,0,1,217,560.9a47.41,47.41,0,0,0-18-2c-38.07,5.16-24.91-18.25-24.91-18.25l0,0c-.22,4.84.4,9.15,2.7,11.45,0,0,2.87,6.13,27.42,3.27,0,0,6.16-.36,17.13,3.35a26.66,26.66,0,0,0,4.66,1.15c10.46,1.59,49.28,6.66,49.15-5.72a7.89,7.89,0,0,0,.29-2.31C284.84,568.09,250.94,566.39,232.83,564.43Z" fill="#ff0080" data-primary="true"/>
<path d="M232.83,564.43A78.47,78.47,0,0,1,217,560.9a47.41,47.41,0,0,0-18-2c-38.07,5.16-24.91-18.25-24.91-18.25l0,0c-.22,4.84.4,9.15,2.7,11.45,0,0,2.87,6.13,27.42,3.27,0,0,6.16-.36,17.13,3.35a26.66,26.66,0,0,0,4.66,1.15c10.46,1.59,49.28,6.66,49.15-5.72a7.89,7.89,0,0,0,.29-2.31C284.84,568.09,250.94,566.39,232.83,564.43Z" opacity="0.4"/>
<path d="M280,278.69a4.6,4.6,0,0,1,2.2-.61c1.75,0,5.75-.53,12.1-3.61a32.7,32.7,0,0,1,24-.35,18.22,18.22,0,0,1,6.63,4.57c2,2.14,4.91,5.09,6.76,6.18a5.22,5.22,0,0,1,.67.45c.91.73,3.31,2.84,3.66,4.86.59,3.35,4.3,5.21,7.07,3.23a5.58,5.58,0,0,0,2.2-3.21,2.77,2.77,0,0,0,.1-.5c.24-1.63,1.83-11.28,6.16-10.84,0,0,3.12-.2,1.49,9.24,0,.13,0,.27,0,.4l-.23,4.72a4.35,4.35,0,0,0,.64,2.57c.69,1.07,1.44,3.3.07,7.32,0,0-3,10.76-13.12,9.79a2.82,2.82,0,0,0-.41,0L321,313s-3.09.13-11.3-4l-.32-.14c-1.63-.65-15-5.79-25.71-4.16a5.11,5.11,0,0,0-.75.18l-1.17.38a4.49,4.49,0,0,1-3-.05,8.12,8.12,0,0,1-5.33-6.34C274.51,299.3,266.86,286.29,280,278.69Z" fill="#f9b499"/>
<path d="M313.22,283l2.1,1.56c.69.52,1.39,1,2.1,1.55,1.41,1,2.81,2,4.26,3s2.89,1.91,4.38,2.77c.37.23.76.43,1.14.64s.76.41,1.15.59.77.4,1.17.56l1.21.51a21.58,21.58,0,0,1-4.92-1.83,38,38,0,0,1-4.52-2.67q-2.18-1.47-4.2-3.14A47.91,47.91,0,0,1,313.22,283Z" fill="#f7a48b"/>
<path d="M352.69,295c-1.13,1.86-2.33,3.67-3.53,5.48-.6.91-1.22,1.8-1.83,2.7a7.55,7.55,0,0,1-2.47,2.3,7.48,7.48,0,0,1-3.26.93c-1.12,0-2.18,0-3.27-.05l-3.26-.1c-1.09-.06-2.17-.09-3.26-.17,1.09-.08,2.17-.11,3.26-.17l3.26-.1,3.24-.07a6.7,6.7,0,0,0,2.95-.88,6.81,6.81,0,0,0,2.27-2.07c.64-.88,1.27-1.76,1.93-2.63C350,298.41,351.33,296.67,352.69,295Z" fill="#f7a48b"/>
<path d="M275.55,325.45a39,39,0,0,0,3.83-4.69,49.27,49.27,0,0,0,5.69-10.61c.77-1.86,1.34-3.8,1.93-5.74-.17,1-.34,2-.57,3s-.51,2-.85,2.94a35.8,35.8,0,0,1-2.42,5.62,34.68,34.68,0,0,1-3.35,5.12c-.63.8-1.31,1.57-2,2.32A21.89,21.89,0,0,1,275.55,325.45Z" opacity="0.2"/>
<path d="M369.75,349.81s-1.44,7.78-10.67,10.37c0,0-8.42,3.46-27.27,12.69,0,0-46.49,28.51-59.62,15.84,3.15-6.08,12.46-25.8,11-43.85,0,0,7.09-4.86,21.32-5.72,0,0,8.75-.87,13.94-4,0,0,2.54-2.41,13.38-2.79,0,0,10.84-.08,19.78-6.86,0,0,4.61-5.92,8.94-1.3,0,0-6.06,1.05-4.9,8.16,0,0-.87,15.48,2.59,18.65a5,5,0,0,0,6.63,1.57Z" fill="#ff0080" data-primary="true"/>
<path d="M336,337.12c-.24,1.19-.44,2.38-.57,3.58s-.27,2.39-.32,3.59a35.64,35.64,0,0,0,.35,7.16,21.46,21.46,0,0,0,2.17,6.77,16.61,16.61,0,0,0,4.63,5.42,15.41,15.41,0,0,1-2.87-2.24,16.64,16.64,0,0,1-2.23-2.91,18.12,18.12,0,0,1-1.52-3.36,24.14,24.14,0,0,1-.87-3.57,29.82,29.82,0,0,1-.19-7.31A32.53,32.53,0,0,1,336,337.12Z" opacity="0.2"/>
<path d="M360.53,324.15s6-1.08,13.63-9.22c0,0,10.4-12.2,14.45-13.22,0,0,6.34-.82,9.76-2.75,0,0,6.05-4,12.39-.43,0,0,6.74-2.2,6.54.58,0,0-2.18,6.35-17.05,8.72,0,0-5.15,2.38-3.37,4,0,0,11.3.2,15.67-3.37,0,0,1.39-3.79,4.76,2.17,0,0,7.14,11.91,0,14.29,0,0,1.58,3.17-2,4,0,0,1,9.72-6.94,12.3,0,0-7.14,4.36-20.42,3.57,0,0-11.83.26-18.21,5.09l-4.9,2.72s-7.83,4.63-9.12-10.42l-.1-9.8S353.52,325.59,360.53,324.15Z" fill="#f9b499"/>
<path d="M396.88,311.8s-3,8.79-9,11.38" fill="none" stroke="#f7a48b" stroke-miterlimit="10"/>
<path d="M392.39,337.12l11.16-1.31a7.34,7.34,0,0,0,5.44-3.56c1.83-3.11,4.75-7,6.33-3.4" fill="none" stroke="#f7a48b" stroke-miterlimit="10"/>
<path d="M409.08,327.42s-1.63-5.57-1.08-8.88a2.35,2.35,0,0,1,3.51-1.67c1.46.85,3.48,3,5.8,8" fill="none" stroke="#f7a48b" stroke-miterlimit="10"/>
<path d="M412.39,317.49s-2.12-7.47.16-9.06" fill="none" stroke="#f7a48b" stroke-miterlimit="10"/>
<path d="M419.56,315.49s3.66-.06,3.35-7.06l-1.25-7.12a1.41,1.41,0,0,0-2.42-.73,9.41,9.41,0,0,0-2.49,9.09A22.89,22.89,0,0,1,419.56,315.49Z" fill="#f7a48b"/>
<path d="M166.67,217.61s-29.74,59.49-31.23,95.48c0,0-7.44,21.41,22.9,19,0,0,30.5-1.06,43.66-3.95l65.14-12.64s18.94-1.85,16.19-10.77l-2.74.89s-.36,3.64-2.75,2.81a2.68,2.68,0,0,1-1.52-1.49,53.68,53.68,0,0,1-4-14.32A14.2,14.2,0,0,1,281.16,278h0s-4.16-5.91-13.68,0c0,0-15.17,7.1-26.47,3.83,0,0-12-2.68-28.29,3.57a52,52,0,0,1-13.69,2.38,4.33,4.33,0,0,1-4-6.26c2.42-4.85,5.67-12,6.69-17.48a16,16,0,0,1,1.43-4.21,95.7,95.7,0,0,1,9-14.29s6.37-8.41,8-16.51c.3-1.44.69-2.86,1.12-4.27,2.39-7.66,7.31-31.7-23.68-33.95C197.64,190.84,181.07,195.26,166.67,217.61Z" fill="#ff0080" data-primary="true"/>
<path d="M166.67,217.61s-29.74,59.49-31.23,95.48c0,0-7.44,21.41,22.9,19,0,0,30.5-1.06,43.66-3.95l65.14-12.64s18.94-1.85,16.19-10.77l-2.74.89s-.36,3.64-2.75,2.81a2.68,2.68,0,0,1-1.52-1.49,54.85,54.85,0,0,1-4-13.88A14.35,14.35,0,0,1,281.18,278h0s-4.16-5.91-13.68,0c0,0-15.17,7.1-26.47,3.83,0,0-12-2.68-28.29,3.57a52,52,0,0,1-13.7,2.38,4.33,4.33,0,0,1-4-6.26c2.42-4.84,5.67-12,6.69-17.48a16,16,0,0,1,1.43-4.21,95.7,95.7,0,0,1,9-14.29s6.37-8.41,8-16.51c.3-1.44.69-2.86,1.12-4.27,2.39-7.66,7.31-31.7-23.68-33.95C197.64,190.84,181.07,195.26,166.67,217.61Z" opacity="0.2"/>
<path d="M250,289.25c-.35.75-.67,1.49-1,2.26s-.58,1.51-.81,2.29a27.58,27.58,0,0,0-1.05,4.71,16.36,16.36,0,0,0,.06,4.79,12.82,12.82,0,0,0,1.69,4.5,10.62,10.62,0,0,1-1.37-2.05,12,12,0,0,1-.85-2.35,13.71,13.71,0,0,1-.34-2.48,18.87,18.87,0,0,1,.12-2.49,19.91,19.91,0,0,1,1.24-4.81A21.08,21.08,0,0,1,250,289.25Z" opacity="0.2"/>
<path d="M348.67,160.36s4.65-21.26-1.16-25.73c0,0-9.52-9.81-26.47,4.16,0,0-11,10.75-24.18,11.06a8.86,8.86,0,0,0-7.57,4.43c-2.48,4.35-6.6,12.13-12.61,25.08q-1.38,3-2.88,6.28a30.94,30.94,0,0,1-7.07,9.91A39.77,39.77,0,0,1,243.11,206c-34.8,3.27-39.56,28.7-39.56,28.7-18.44-38.22,19-43.87,19-43.87-34.06-11.29-55.91,26.77-55.91,26.77-8.33,23.2-20.23,16.07-20.23,16.07,10.12-.6,8.33-16.07,8.33-16.07-.59-31.53,26.17-40.45,26.17-40.45,28-9.52,39.26-25,39.26-25l28.56-37.48s45.81-56.51,89.82-5.35l7.14,9.22S381.81,148.61,348.67,160.36Z" fill="#2f2e41" data-secondary="true"/>
<g opacity="0.2">
<path d="M222.59,190.84a64,64,0,0,0,5.76-3q2.82-1.61,5.49-3.41a69.66,69.66,0,0,0,10-8.13,51.13,51.13,0,0,0,4.31-4.76c.69-.81,1.3-1.69,1.94-2.55s1.22-1.76,1.77-2.68,1.07-1.86,1.6-2.79c.25-.48.48-1,.72-1.44l.36-.72.32-.75a50.69,50.69,0,0,0,2.26-6.07,38.16,38.16,0,0,1-4.33,12.31,45.29,45.29,0,0,1-8,10.43,56.71,56.71,0,0,1-10.35,8A53.47,53.47,0,0,1,222.59,190.84Z"/>
</g>
</g>
</svg>